<?xml version="1.0" encoding="utf-8"?>
<!-- Generator: Adobe Illustrator 16.0.0, SVG Export Plug-In . SVG Version: 6.00 Build 0)  -->
<!DOCTYPE svg PUBLIC "-//W3C//DTD SVG 1.1//EN" "http://www.w3.org/Graphics/SVG/1.1/DTD/svg11.dtd">
<svg version="1.1" id="Capa_1" xmlns="http://www.w3.org/2000/svg" xmlns:xlink="http://www.w3.org/1999/xlink" x="0px" y="0px"
	 width="56.6904297px" height="56.6904297px" viewBox="0 0 56.6904297 56.6904297"
	 style="enable-background:new 0 0 56.6904297 56.6904297;" xml:space="preserve">
<style type="text/css">
<![CDATA[
	.st0{fill:#ffffff;stroke:#ffffff;stroke-miterlimit:10;}
	.st1{fill:none;stroke:#ffffff;stroke-width:3;stroke-miterlimit:10;}
]]>
</style>
<g>
	<circle class="st1" cx="28.3457031" cy="28.3452148" r="15.8422852"/>
	<path class="st0" d="M19.9033203,28.7919922c0,0,0.4887695-0.0703125,1.5727539,0.3720703
		c1.0449219,0.3681641,2.0361328,0.8544922,3.019043,1.3603516c0.1303711,0.0664063,0.2602539,0.1308594,0.387207,0.203125
		l0.1166992-0.0234375c0.6313477-0.7285156,1.2553711-1.4628906,1.8969727-2.1816406
		c1.6113281-1.8056641,3.2719727-3.5654297,5.0317383-5.2285156c0.84375-0.7958984,1.7089844-1.5673828,2.6445313-2.2568359
		c0.5039063-0.3730469,1.0234375-0.7236328,1.6035156-0.9755859c0.359375-0.15625,0.7324219-0.2626953,1.1308594-0.2216797
		c0.2226563,0.0214844,0.4257813,0.0966797,0.6015625,0.2373047c0.3066406,0.2451172,0.3632813,0.6708984,0.1191406,1.0351563
		c-0.1425781,0.2138672-0.3105469,0.4130859-0.4902344,0.5947266c-0.5449219,0.5419922-1.1035156,1.0683594-1.6503906,1.6054688
		c-2.2226563,2.1816406-4.1425781,4.6074219-5.7929688,7.2470703c-1.4077148,2.2519531-2.6054688,4.6113281-3.6333008,7.0585938
		c-0.1494141,0.3554688-0.2944336,0.7138672-0.4384766,1.0722656c-0.0888672,0.2216797-0.2436523,0.3613281-0.4848633,0.3828125
		c-0.2519531,0.0205078-0.4350586-0.0917969-0.559082-0.3105469c-0.7226563-1.2832031-1.4726563-2.5488281-2.2910156-3.7753906
		c-1.1069336-1.6591797-2.3857422-3.1699219-3.8730469-4.5019531c-0.3056641-0.2734375-0.3828125-0.5078125-0.2158203-0.9794922
		c0.1411133-0.4003906,0.4599609-0.6005859,0.8642578-0.6728516C19.605957,28.8066406,19.7563477,28.8046875,19.9033203,28.7919922"
		/>
</g>
<g>
</g>
<g>
</g>
<g>
</g>
<g>
</g>
<g>
</g>
<g>
</g>
</svg>
