<?xml version="1.0" encoding="utf-8"?>
<!-- Generator: Adobe Illustrator 16.0.0, SVG Export Plug-In . SVG Version: 6.00 Build 0)  -->
<!DOCTYPE svg PUBLIC "-//W3C//DTD SVG 1.1//EN" "http://www.w3.org/Graphics/SVG/1.1/DTD/svg11.dtd">
<svg version="1.1" id="Logo3ccompli" xmlns="http://www.w3.org/2000/svg" xmlns:xlink="http://www.w3.org/1999/xlink" x="0px" y="0px"
	 width="100%" viewBox="0 0 595.28 255.12" style="enable-background:new 0 0 595.28 255.12;"
	 xml:space="preserve">
<style type="text/css">
<![CDATA[
	.logo3csvgcompli{fill:#FFFFFF;}
]]>
</style>
<g>
	<path class="logo3csvgcompli" d="M554.796,171.545l26.122,13.348c-4.886,7.7-9.575,15.218-20.117,22.547
		c-5.636,3.957-18.592,11.66-37.017,11.66c-35.145,0-63.53-25.562-63.53-70.487c0-39.28,26.695-70.287,64.274-70.287
		c15.227,0,28.763,5.254,38.728,13.154c9.211,7.332,13.529,14.658,17.292,21.24l-26.311,13.156
		c-1.892-4.323-4.151-8.844-9.975-13.725c-6.386-5.079-12.771-6.577-18.218-6.577c-21.431,0-32.711,19.917-32.711,42.097
		c0,29.138,14.841,43.605,32.711,43.605C543.337,191.277,550.281,179.251,554.796,171.545z"/>
	<path class="logo3csvgcompli" d="M554.796,171.545l26.122,13.348c-4.886,7.7-9.575,15.218-20.117,22.547
		c-5.636,3.957-18.592,11.66-37.017,11.66c-35.145,0-63.53-25.562-63.53-70.487c0-39.28,26.695-70.287,64.274-70.287
		c15.227,0,28.763,5.254,38.728,13.154c9.211,7.332,13.529,14.658,17.292,21.24l-26.311,13.156
		c-1.892-4.323-4.151-8.844-9.975-13.725c-6.386-5.079-12.771-6.577-18.218-6.577c-21.431,0-32.711,19.917-32.711,42.097
		c0,29.138,14.841,43.605,32.711,43.605C543.337,191.277,550.281,179.251,554.796,171.545z"/>
	<path class="logo3csvgcompli" d="M180.071,107.668H151.6v36.244h27.712c4.732-0.194,20.108-0.569,20.108-18.409
		C199.421,108.426,187.097,107.863,180.071,107.668z M15.896,109.238l0.008-26.619h162.46c14.038,0.185,31.493,0.385,43.831,13.665
		c2.813,3.144,5.232,7.027,7.063,11.438c1.419-3.596,3.313-7.403,5.717-10.899c8.269-12.253,24.992-17.949,39.814-17.949
		c25.681,0,47.832,18.859,47.832,40.054c0,3.832,1.309,20.125-16.276,29.468c17.585,9.35,17.585,25.027,17.585,29.018
		c0,2.854-0.335,5.631-0.979,8.306l17.838-11.306c3.418,3.794,6.271,6.838,12.912,10.432c8.91,4.746,21.922,8.41,29.703,8.41
		c13.285,0,24.672-6.273,24.672-15.564c0-10.635-13.477-12.332-23.342-13.668c-7.408-0.943-14.807-1.896-22.02-3.412
		c-8.169-1.711-36.054-7.59-36.054-36.432c0-34.543,30.744-44.783,53.89-44.783c30.936,0,47.629,14.991,59.209,25.425
		l-24.658,17.648c-4.186-4.18-7.977-7.78-13.291-10.817c-4.746-2.655-13.28-5.886-21.827-5.886
		c-13.286,0-19.923,7.597-19.923,14.044c0,10.246,11.388,11.761,17.071,12.528c14.247,1.707,33.403,5.313,40.995,7.971
		c15.375,5.691,23.152,17.65,23.152,32.822c0,9.678-3.607,20.307-10.625,28.457c-12.143,14.047-31.502,18.037-50.283,18.037
		c-32.645,0-51.197-14.5-61.002-24.689c-7.895,14.338-25.113,24.188-44.613,24.188c-15.43,0-32.833-5.934-41.438-18.7
		c-5.938-8.624-6.833-18.682-7.366-23.524h34.275c0.712,3.047,3.036,12.208,15.255,12.375c9.867,0,14.525-6.443,14.525-14.898
		c0-12.592-12.905-13.489-17.752-13.489h-9.228v-24.981h9.228c4.847,0,17.752-0.889,17.752-13.469
		c0-8.433-4.658-14.902-14.525-14.902c-12.219,0.173-14.543,9.327-15.255,12.396h-27.785c0.25,1.997,0.373,4.048,0.373,6.142
		c0,26.949-18.393,33.587-27.511,37.007l30.937,53.515h-37.012l-26.557-47.819H151.6v47.819h-33.577V109.193H83.813v107.402H50.219
		V109.193L15.896,109.238z"/>
</g>
<g>
	<path class="logo3csvgcompli" d="M41.637,72.89h-5.128v-3.569c-2.212,2.648-5.178,3.972-8.898,3.972c-2.782,0-5.086-0.787-6.912-2.363
		c-1.827-1.575-2.74-3.678-2.74-6.31c0-2.63,0.972-4.6,2.916-5.907c1.943-1.307,4.575-1.961,7.893-1.961h7.29v-1.005
		c0-3.552-1.978-5.329-5.933-5.329c-2.48,0-5.061,0.905-7.742,2.715l-2.514-3.519c3.25-2.581,6.938-3.871,11.06-3.871
		c3.15,0,5.722,0.796,7.717,2.388c1.994,1.592,2.991,4.097,2.991,7.516V72.89z M36.006,62.936v-2.262h-6.334
		c-4.056,0-6.083,1.274-6.083,3.821c0,1.307,0.502,2.305,1.508,2.991c1.005,0.688,2.404,1.031,4.198,1.031
		c1.792,0,3.359-0.503,4.7-1.508C35.335,66.003,36.006,64.646,36.006,62.936z"/>
	<path class="logo3csvgcompli" d="M55.109,58.412V72.89h-5.63V46.145h5.63v4.876c0.804-1.642,2.019-2.933,3.645-3.871
		c1.625-0.938,3.376-1.408,5.253-1.408c4.223,0,7.088,1.743,8.597,5.229c2.647-3.485,5.949-5.229,9.904-5.229
		c3.016,0,5.455,0.922,7.314,2.765c1.86,1.844,2.791,4.508,2.791,7.993V72.89h-5.631V58.21c0-4.927-2.044-7.39-6.133-7.39
		c-1.91,0-3.578,0.612-5.002,1.835c-1.425,1.224-2.17,3.008-2.237,5.354V72.89h-5.63V58.21c0-2.547-0.453-4.416-1.357-5.605
		c-0.905-1.189-2.33-1.785-4.273-1.785c-1.944,0-3.637,0.646-5.078,1.936C55.83,54.046,55.109,55.932,55.109,58.412z"/>
	<path class="logo3csvgcompli" d="M114.783,45.743c3.586,0,6.652,1.24,9.2,3.72c2.546,2.48,3.82,5.781,3.82,9.904s-1.265,7.474-3.795,10.055
		c-2.531,2.581-5.48,3.871-8.848,3.871s-6.393-1.475-9.074-4.424v4.022h-5.63V35.587h5.63V50.82
		C108.298,47.436,111.197,45.743,114.783,45.743z M105.985,59.568c0,2.547,0.771,4.634,2.313,6.259
		c1.542,1.626,3.419,2.438,5.631,2.438s4.139-0.805,5.781-2.413c1.642-1.609,2.463-3.695,2.463-6.259s-0.804-4.692-2.413-6.384
		s-3.537-2.539-5.781-2.539c-2.246,0-4.14,0.847-5.681,2.539C106.756,54.901,105.985,57.021,105.985,59.568z"/>
	<path class="logo3csvgcompli" d="M153.643,72.89h-5.63V35.587h5.63V72.89z"/>
	<path class="logo3csvgcompli" d="M183.455,72.89h-5.128v-3.569c-2.212,2.648-5.178,3.972-8.898,3.972c-2.782,0-5.086-0.787-6.912-2.363
		c-1.827-1.575-2.74-3.678-2.74-6.31c0-2.63,0.972-4.6,2.916-5.907c1.943-1.307,4.575-1.961,7.893-1.961h7.29v-1.005
		c0-3.552-1.978-5.329-5.933-5.329c-2.48,0-5.061,0.905-7.742,2.715l-2.514-3.519c3.25-2.581,6.938-3.871,11.06-3.871
		c3.15,0,5.722,0.796,7.717,2.388c1.994,1.592,2.991,4.097,2.991,7.516V72.89z M177.824,62.936v-2.262h-6.334
		c-4.056,0-6.083,1.274-6.083,3.821c0,1.307,0.502,2.305,1.508,2.991c1.005,0.688,2.404,1.031,4.198,1.031
		c1.792,0,3.359-0.503,4.7-1.508C177.153,66.003,177.824,64.646,177.824,62.936z"/>
	<path class="logo3csvgcompli" d="M216.935,73.292c-3.72,0-6.921-1.265-9.602-3.796c-2.682-2.53-4.022-5.839-4.022-9.929
		c0-4.089,1.399-7.416,4.198-9.979c2.798-2.563,6.209-3.846,10.23-3.846c4.022,0,7.423,1.391,10.206,4.173l-3.318,4.072
		c-2.313-2.011-4.643-3.016-6.988-3.016c-2.346,0-4.382,0.779-6.108,2.337c-1.727,1.559-2.589,3.57-2.589,6.033
		s0.854,4.549,2.563,6.259c1.709,1.709,3.813,2.564,6.31,2.564c2.496,0,4.851-1.139,7.063-3.418l3.318,3.62
		C224.945,71.65,221.191,73.292,216.935,73.292z"/>
	<path class="logo3csvgcompli" d="M255.846,69.295c-2.682,2.665-6.033,3.997-10.054,3.997c-4.022,0-7.374-1.333-10.055-3.997
		c-2.682-2.664-4.022-5.923-4.022-9.778c0-3.854,1.34-7.114,4.022-9.778c2.681-2.664,6.033-3.997,10.055-3.997
		c4.021,0,7.373,1.333,10.054,3.997c2.681,2.665,4.022,5.924,4.022,9.778C259.868,63.372,258.527,66.631,255.846,69.295z
		 M239.734,65.827c1.591,1.626,3.611,2.438,6.058,2.438c2.446,0,4.465-0.813,6.058-2.438c1.592-1.625,2.388-3.728,2.388-6.309
		c0-2.581-0.796-4.683-2.388-6.309c-1.592-1.625-3.612-2.438-6.058-2.438c-2.447,0-4.467,0.813-6.058,2.438
		c-1.592,1.626-2.388,3.729-2.388,6.309C237.346,62.099,238.142,64.202,239.734,65.827z"/>
	<path class="logo3csvgcompli" d="M271.883,58.412V72.89h-5.63V46.145h5.63v4.876c0.804-1.642,2.019-2.933,3.645-3.871
		c1.625-0.938,3.376-1.408,5.253-1.408c4.223,0,7.088,1.743,8.597,5.229c2.647-3.485,5.949-5.229,9.905-5.229
		c3.016,0,5.453,0.922,7.314,2.765c1.859,1.844,2.789,4.508,2.789,7.993V72.89h-5.629V58.21c0-4.927-2.045-7.39-6.135-7.39
		c-1.91,0-3.578,0.612-5.002,1.835c-1.425,1.224-2.17,3.008-2.237,5.354V72.89h-5.63V58.21c0-2.547-0.453-4.416-1.357-5.605
		c-0.905-1.189-2.33-1.785-4.273-1.785c-1.944,0-3.637,0.646-5.078,1.936C272.604,54.046,271.883,55.932,271.883,58.412z"/>
	<path class="logo3csvgcompli" d="M331.557,45.743c3.586,0,6.652,1.24,9.199,3.72c2.547,2.48,3.822,5.781,3.822,9.904s-1.266,7.474-3.797,10.055
		c-2.531,2.581-5.479,3.871-8.848,3.871s-6.393-1.475-9.074-4.424v13.775h-5.631V46.145h5.631v4.675
		C325.072,47.436,327.971,45.743,331.557,45.743z M322.76,59.568c0,2.547,0.77,4.634,2.313,6.259
		c1.541,1.626,3.418,2.438,5.629,2.438c2.213,0,4.141-0.805,5.783-2.413c1.641-1.609,2.463-3.695,2.463-6.259
		s-0.805-4.692-2.414-6.384c-1.607-1.692-3.535-2.539-5.781-2.539s-4.139,0.847-5.68,2.539
		C323.529,54.901,322.76,57.021,322.76,59.568z"/>
	<path class="logo3csvgcompli" d="M356.643,72.89h-5.631V35.587h5.631V72.89z"/>
	<path class="logo3csvgcompli" d="M365.139,40.816c-0.705-0.704-1.057-1.541-1.057-2.514c0-0.972,0.352-1.81,1.057-2.514
		c0.703-0.704,1.541-1.056,2.514-1.056c0.971,0,1.809,0.352,2.514,1.056c0.703,0.704,1.055,1.542,1.055,2.514
		c0,0.973-0.352,1.81-1.055,2.514c-0.705,0.704-1.543,1.056-2.514,1.056C366.68,41.872,365.842,41.52,365.139,40.816z
		 M370.418,72.89h-5.631V46.145h5.631V72.89z"/>
	<path class="logo3csvgcompli" d="M390.426,73.292c-3.721,0-6.922-1.265-9.604-3.796c-2.682-2.53-4.021-5.839-4.021-9.929
		c0-4.089,1.4-7.416,4.199-9.979c2.797-2.563,6.207-3.846,10.23-3.846c4.021,0,7.422,1.391,10.205,4.173l-3.318,4.072
		c-2.313-2.011-4.643-3.016-6.988-3.016s-4.383,0.779-6.107,2.337c-1.727,1.559-2.59,3.57-2.59,6.033s0.855,4.549,2.564,6.259
		s3.813,2.564,6.309,2.564s4.852-1.139,7.064-3.418l3.316,3.62C398.436,71.65,394.682,73.292,390.426,73.292z"/>
	<path class="logo3csvgcompli" d="M407.869,40.816c-0.705-0.704-1.057-1.541-1.057-2.514c0-0.972,0.352-1.81,1.057-2.514
		c0.703-0.704,1.541-1.056,2.514-1.056c0.971,0,1.809,0.352,2.514,1.056c0.703,0.704,1.055,1.542,1.055,2.514
		c0,0.973-0.352,1.81-1.055,2.514c-0.705,0.704-1.543,1.056-2.514,1.056C409.41,41.872,408.572,41.52,407.869,40.816z
		 M413.148,72.89h-5.631V46.145h5.631V72.89z"/>
	<path class="logo3csvgcompli" d="M428.229,50.669v13.574c0,1.274,0.336,2.288,1.006,3.042s1.609,1.131,2.814,1.131
		c1.207,0,2.363-0.586,3.471-1.76l2.313,3.972c-1.979,1.777-4.166,2.665-6.561,2.665c-2.398,0-4.441-0.83-6.135-2.489
		c-1.691-1.659-2.539-3.896-2.539-6.711V50.669h-3.367v-4.524h3.367V37.75h5.631v8.396h7.039v4.524H428.229z"/>
	<path class="logo3csvgcompli" d="M463.973,72.89h-5.127v-3.569c-2.213,2.648-5.18,3.972-8.898,3.972c-2.783,0-5.088-0.787-6.914-2.363
		c-1.826-1.575-2.738-3.678-2.738-6.31c0-2.63,0.971-4.6,2.914-5.907c1.943-1.307,4.576-1.961,7.895-1.961h7.289v-1.005
		c0-3.552-1.979-5.329-5.932-5.329c-2.48,0-5.063,0.905-7.742,2.715l-2.514-3.519c3.25-2.581,6.938-3.871,11.059-3.871
		c3.15,0,5.723,0.796,7.717,2.388c1.994,1.592,2.992,4.097,2.992,7.516V72.89z M458.342,62.936v-2.262h-6.334
		c-4.057,0-6.084,1.274-6.084,3.821c0,1.307,0.504,2.305,1.51,2.991c1.004,0.688,2.404,1.031,4.197,1.031s3.359-0.503,4.701-1.508
		C457.672,66.003,458.342,64.646,458.342,62.936z"/>
	<path class="logo3csvgcompli" d="M478.451,50.669v13.574c0,1.274,0.336,2.288,1.006,3.042s1.609,1.131,2.814,1.131
		c1.207,0,2.363-0.586,3.471-1.76l2.313,3.972c-1.979,1.777-4.166,2.665-6.561,2.665c-2.398,0-4.441-0.83-6.135-2.489
		c-1.691-1.659-2.539-3.896-2.539-6.711V50.669h-3.367v-4.524h3.367V37.75h5.631v8.396h7.039v4.524H478.451z"/>
	<path class="logo3csvgcompli" d="M508.363,69.472c-2.514-2.547-3.77-5.898-3.77-10.055c0-4.155,1.289-7.474,3.869-9.954
		c2.582-2.48,5.656-3.72,9.227-3.72c3.568,0,6.441,1.508,8.621,4.524v-14.68h5.631V72.89h-5.631v-4.022
		c-2.078,2.95-5.111,4.424-9.1,4.424C513.826,73.292,510.877,72.019,508.363,69.472z M510.223,59.643
		c0,2.564,0.822,4.65,2.465,6.259c1.641,1.608,3.568,2.413,5.781,2.413c2.211,0,4.088-0.813,5.631-2.438
		c1.541-1.625,2.313-3.711,2.313-6.259c0-2.547-0.771-4.675-2.313-6.385c-1.543-1.709-3.438-2.564-5.682-2.564
		c-2.246,0-4.172,0.854-5.781,2.564S510.223,57.079,510.223,59.643z"/>
	<path class="logo3csvgcompli" d="M564.971,61.981h-20.965c0.135,1.944,1.023,3.511,2.666,4.701c1.641,1.19,3.518,1.785,5.629,1.785
		c3.352,0,5.898-1.056,7.643-3.167l3.217,3.519c-2.883,2.983-6.635,4.475-11.26,4.475c-3.756,0-6.947-1.249-9.578-3.746
		c-2.631-2.496-3.945-5.848-3.945-10.055c0-4.206,1.34-7.549,4.021-10.029c2.68-2.48,5.84-3.72,9.477-3.72
		c3.635,0,6.727,1.098,9.275,3.293c2.547,2.195,3.82,5.221,3.82,9.074V61.981z M544.006,57.557h15.334
		c0-2.245-0.703-3.971-2.111-5.178s-3.143-1.81-5.203-1.81s-3.914,0.628-5.555,1.885C544.828,53.711,544.006,55.413,544.006,57.557z
		"/>
	<path class="logo3csvgcompli" d="M576.785,72.89h-5.631V35.587h5.631V72.89z"/>
</g>
</svg>