<?xml version="1.0" encoding="utf-8"?>
<!DOCTYPE svg PUBLIC "-//W3C//DTD SVG 1.1//EN" "http://www.w3.org/Graphics/SVG/1.1/DTD/svg11.dtd">
<svg version="1.1" xmlns="http://www.w3.org/2000/svg" xmlns:xlink="http://www.w3.org/1999/xlink" x="0px" y="0px"
	 width="100%" viewBox="0 0 481.89 425.197" style="enable-background:new 0 0 481.89 425.197;"
	 xml:space="preserve">
<style type="text/css">
<![CDATA[
	.st0{clip-path:url(#SVGID_2_);fill:#FFFFFF;}
	.st1{fill:#007AC2;}
]]>
</style>
<rect class="st1" width="481.89" height="425.197"/>
<g>
	<defs>
		<rect id="SVGID_1_" width="481.89" height="425.197"/>
	</defs>
	<clipPath id="SVGID_2_">
		<use xlink:href="#SVGID_1_"  style="overflow:visible;"/>
	</clipPath>
	<path class="st0" d="M124.095,393.682h21.437v-27.696l7.137,0.172c13.676,0,19.019-1.276,23.729-4.608
		c7.146-4.955,11.05-13.314,11.05-23.313c0-18.711-10.67-29.127-27.932-29.127h-35.421V393.682z M145.804,347.411v-19.825h9.51
		c6.856,0,8.903,4.466,9.056,9.591c0.128,5.263-2.445,10.234-8.784,10.234H145.804z"/>
	<path class="st0" d="M264.702,390.612c-8.069,3.931-12.661,5.081-20.45,5.081c-25.54,0-43.527-18.149-43.527-43.898
		c0-25.54,18.385-44.442,43.282-44.442c7.617,0,12.589,1.241,20.695,5.199v22.153c-8.377-7.037-11.692-6.521-18.295-6.521
		c-12.815,0-21.736,9.728-21.736,23.611c0,13.92,9.048,23.611,21.872,23.611c6.929,0,10.389-0.942,18.159-6.712V390.612z"/>
	<path class="st0" d="M67.435,375.125c3.405-0.009,5.616-0.724,8.215-2.897c3.749-3.107,4.22-6.938,4.347-11.802V309.11h24.571
		v51.424c0,8.976-0.299,20.061-12.082,28.366c-7.743,5.435-16.836,6.594-25.078,6.594s-17.308-1.159-25.06-6.594
		c-11.81-8.306-12.136-19.391-12.136-28.366V309.11h24.634v51.315c0.063,4.863,0.516,8.694,4.311,11.802
		C61.784,374.401,64.021,375.116,67.435,375.125"/>
	<path class="st0" d="M24.922,66.051c0-20.151,16.347-36.563,36.562-36.563c20.179,0,36.572,16.412,36.572,36.563
		c0,20.16-16.393,36.553-36.572,36.553C41.269,102.604,24.922,86.211,24.922,66.051"/>
	<path class="st0" d="M24.922,152.679c0-20.197,16.347-36.544,36.562-36.544c20.179,0,36.572,16.347,36.572,36.544
		c0,20.151-16.393,36.545-36.572,36.545C41.269,189.225,24.922,172.831,24.922,152.679"/>
	<path class="st0" d="M24.922,241.618c0-20.215,16.347-36.571,36.562-36.571c20.179,0,36.572,16.356,36.572,36.571
		c0,20.179-16.393,36.517-36.572,36.517C41.269,278.134,24.922,261.796,24.922,241.618"/>
	<path class="st0" d="M113.779,66.051c0-20.151,16.356-36.563,36.535-36.563c20.197,0,36.554,16.412,36.554,36.563
		c0,20.16-16.357,36.553-36.554,36.553C130.135,102.604,113.779,86.211,113.779,66.051"/>
	<path class="st0" d="M113.779,152.679c0-20.197,16.356-36.544,36.535-36.544c20.197,0,36.554,16.347,36.554,36.544
		c0,20.151-16.357,36.545-36.554,36.545C130.135,189.225,113.779,172.831,113.779,152.679"/>
	<path class="st0" d="M113.779,241.618c0-20.215,16.356-36.571,36.535-36.571c20.197,0,36.554,16.356,36.554,36.571
		c0,20.179-16.357,36.517-36.554,36.517C130.135,278.134,113.779,261.796,113.779,241.618"/>
	<path class="st0" d="M200.543,66.051c0-20.151,16.33-36.563,36.581-36.563c20.151,0,36.543,16.412,36.543,36.563
		c0,20.16-16.393,36.553-36.543,36.553C216.873,102.604,200.543,86.211,200.543,66.051"/>
	<path class="st0" d="M200.543,152.679c0-20.197,16.33-36.544,36.581-36.544c20.151,0,36.543,16.347,36.543,36.544
		c0,20.151-16.393,36.545-36.543,36.545C216.873,189.225,200.543,172.831,200.543,152.679"/>
	<path class="st0" d="M200.543,241.618c0-20.215,16.33-36.571,36.581-36.571c20.151,0,36.543,16.356,36.543,36.571
		c0,20.179-16.393,36.517-36.543,36.517C216.873,278.134,200.543,261.796,200.543,241.618"/>
	<path class="st0" d="M455.623,231.878c-0.86,1.075-2.292,1.613-4.302,1.613h-28.179c-1.291,1.864-2.438,5.378-3.442,10.54
		c-1.001,5.162-1.646,10.039-1.936,14.627c3.012,1.58,6.668,2.727,10.971,3.442l4.302,0.86c1.004,0.144,3.227,0.574,6.668,1.29
		c3.442,0.719,6.419,1.505,8.928,2.365c2.511,0.86,4.483,1.721,5.915,2.582c0,5.45-1.432,8.604-4.302,9.464
		c-2.293-1.576-9.035-3.367-20.221-5.377l-39.364-7.1c-18.64-3.151-34.558-6.055-47.753-8.71
		c-13.192-2.652-24.233-5.485-33.126-8.498c-9.896-3.296-14.843-6.453-14.843-9.464s0.574-5.304,1.721-6.883
		c5.737,0,19.575-1.362,41.516-4.087c21.511-2.867,36.212-4.303,44.097-4.303c7.602,0,18.499-0.786,32.695-2.366
		c14.486-1.432,26.028-2.15,34.633-2.15c4.877,0,7.313,2.365,7.313,7.098C456.914,229.119,456.483,230.802,455.623,231.878
		 M410.021,233.707c-6.309,0.431-14.123,1.148-23.446,2.15c-32.406,3.302-52.271,4.948-59.584,4.948h-1.721
		c1.436,1.436,7.926,3.408,19.467,5.915c11.546,2.51,23.914,4.84,37.106,6.991c13.194,2.151,21.939,3.301,26.242,3.441
		c1.721-6.022,2.581-12.401,2.581-19.145C410.666,236.863,410.451,235.427,410.021,233.707"/>
	<path class="st0" d="M453.257,162.293h-0.645c-7.6,0.43-16.06,1.721-25.383,3.872c-9.32,2.151-20.575,5.307-33.772,9.464
		c-9.895,3.157-18.783,5.808-26.672,7.959h84.751c2.296,0,3.979,0.397,5.056,1.183c1.075,0.79,1.613,2.333,1.613,4.625
		c0,1.721-0.538,3.085-1.613,4.087c-1.076,1.005-2.475,1.506-4.195,1.506h-1.721l-63.241-0.43
		c-18.64-0.286-39.649-0.431-63.025-0.431h-26.458c-1.721,0-2.904-0.356-3.549-1.075c-0.646-0.716-0.969-2.222-0.969-4.517
		c0-3.583,0.683-6.884,2.044-9.895c1.364-3.012,3.264-5.593,5.7-7.744c5.021-4.443,11.044-7.314,18.068-8.604
		c2.871-0.571,6.168-0.86,9.896-0.86c2.151,0,4.517,0.181,7.099,0.537c2.581,0.36,4.231,0.612,4.947,0.753
		c1.436,0.289,3.586,0.934,6.453,1.936c2.87,1.005,4.732,1.65,5.594,1.936l6.022,2.581l5.593,2.151
		c5.162-0.141,11.689-1.039,19.573-2.688c7.889-1.647,15.202-3.476,21.941-5.486c4.732-1.431,12.621-4.013,23.662-7.743
		l18.929-6.239h0.431c2.439,0,4.518,0.215,6.237,0.646c2.293,0.43,3.442,1.935,3.442,4.517
		C459.065,157.06,457.129,159.711,453.257,162.293 M348.716,176.706l-18.499-3.227c-0.716-0.141-1.721-0.215-3.012-0.215
		c-4.157,0-8.96,0.79-14.412,2.366c-2.581,0.861-4.765,1.973-6.561,3.335c-1.791,1.364-2.76,2.762-2.904,4.194l21.511,0.43
		c9.609,0.43,17.067,0.646,22.371,0.646c5.021,0,8.319-0.071,9.896-0.216C355.099,182.012,352.303,179.575,348.716,176.706"/>
	<path class="st0" d="M455.301,120.889c-2.077,1.22-4.625,1.828-7.637,1.828c-4.732,0-10.54-0.286-17.423-0.86l-5.593-0.43
		l-11.401-0.431c-5.018,0-16.203,0.505-33.556,1.506c-17.35,1.005-28.535,1.506-33.557,1.506c-0.43,0-1.254-0.034-2.474-0.108
		c-1.217-0.07-3.119-0.107-5.7-0.107c-2.867-0.141-6.38-0.215-10.54-0.215c-10.467,0-17.135,0.719-20.005,2.151
		c0,0.86,0.215,2.725,0.645,5.593l0.431,6.023c0,1.865-0.538,3.515-1.613,4.947c-1.075,1.435-2.473,2.151-4.194,2.151
		s-3.227-1.721-4.518-5.162c-1.721-5.018-2.938-13.552-3.657-25.598c-0.285-4.874-0.43-7.815-0.43-8.819
		c0-1.722,0.575-3.298,1.721-4.733c1.149-1.432,2.581-2.151,4.302-2.151c1.722,0,3.119,0.612,4.195,1.828
		c1.075,1.221,1.613,2.763,1.613,4.625l-0.216,3.872c-0.141,1.149-0.215,2.44-0.215,3.872v2.151
		c9.754-1.001,18.573-1.505,26.458-1.505l13.768,0.214c4.16,0.145,8.819,0.216,13.981,0.216c6.884,0,15.132-0.286,24.736-0.861
		c11.905-0.716,20.149-1.075,24.737-1.075c5.453,0,11.905-0.286,19.359-0.861c7.604-0.571,14.057-0.86,19.36-0.86
		c7.027,0,10.54,2.08,10.54,6.238C458.42,117.984,457.378,119.671,455.301,120.889"/>
	<path class="st0" d="M458.85,76.686c-1.29,2.296-2.796,3.442-4.517,3.442s-3.119-0.43-4.194-1.291
		c-1.076-0.86-1.614-2.077-1.614-3.656c0-1.433,0.575-3.513,1.722-6.239c1.149-3.011,1.721-4.873,1.721-5.592
		c0-2.723-1.184-5.197-3.55-7.422c-2.366-2.221-5.485-3.979-9.356-5.27c-7.17-2.581-13.623-3.872-19.36-3.872
		c-6.164,0-12.654,0.968-19.467,2.904c-6.81,1.936-13.444,4.555-19.896,7.851l-6.884,3.442c-7.169,3.587-12.832,6.346-16.993,8.282
		c-4.157,1.936-8.675,3.623-13.552,5.055c-6.884,2.151-13.552,3.226-20.005,3.226c-5.162,0-10.036-0.893-14.627-2.688
		c-4.588-1.792-8.46-4.481-11.616-8.067c-3.441-3.583-5.162-8.029-5.162-13.336c0-2.581,0.753-5.089,2.258-7.529
		c1.506-2.436,3.408-4.157,5.701-5.162l4.517,3.656c0,3.731-0.716,6.527-2.15,8.389c0.289,2.582,1.542,4.84,3.764,6.776
		c2.226,1.936,4.77,3.408,7.637,4.41c2.726,0.86,5.451,1.291,8.174,1.291c5.452,0,11.008-0.753,16.671-2.259
		c5.667-1.506,11.008-3.475,16.025-5.916l30.114-15.056c5.163-2.437,10.971-4.373,17.424-5.808
		c6.453-1.432,12.905-2.151,19.359-2.151c9.465,0,18.358,2.295,26.673,6.883c4.303,2.44,7.711,5.592,10.218,9.464
		c2.508,3.872,3.765,8.174,3.765,12.907C461.646,68.512,460.712,72.959,458.85,76.686"/>
</g>
</svg>